<?xml version="1.0" encoding="UTF-8" standalone="no"?>
<svg
   width="180"
   height="180"
   version="1.1"
   id="svg14"
   sodipodi:docname="apple-touch-icon.svg"
   inkscape:version="1.4.4 (dcaf3e7d9e, 2026-05-05)"
   inkscape:export-filename="apple-touch-icon.png"
   inkscape:export-xdpi="96"
   inkscape:export-ydpi="96"
   xmlns:inkscape="http://www.inkscape.org/namespaces/inkscape"
   xmlns:sodipodi="http://sodipodi.sourceforge.net/DTD/sodipodi-0.dtd"
   xmlns:xlink="http://www.w3.org/1999/xlink"
   xmlns="http://www.w3.org/2000/svg"
   xmlns:svg="http://www.w3.org/2000/svg"
   xmlns:rdf="http://www.w3.org/1999/02/22-rdf-syntax-ns#"
   xmlns:cc="http://creativecommons.org/ns#"
   xmlns:dc="http://purl.org/dc/elements/1.1/">
  <metadata
     id="metadata20">
    <rdf:RDF>
      <cc:Work
         rdf:about="">
        <dc:format>image/svg+xml</dc:format>
        <dc:type
           rdf:resource="http://purl.org/dc/dcmitype/StillImage" />
        <dc:title />
      </cc:Work>
    </rdf:RDF>
  </metadata>
  <defs
     id="defs18">
    <linearGradient
       inkscape:collect="always"
       xlink:href="#linearGradient2"
       id="linearGradient4"
       x1="582.495"
       y1="-584.87683"
       x2="582.495"
       y2="-512.91016"
       gradientUnits="userSpaceOnUse"
       gradientTransform="matrix(1.134505,0,0,1.7017572,-521.56408,1029.0876)" />
    <linearGradient
       id="linearGradient2"
       inkscape:collect="always">
      <stop
         style="stop-color:#1a5fb4;stop-opacity:1;"
         offset="0"
         id="stop3" />
      <stop
         style="stop-color:#62a0ea;stop-opacity:1"
         offset="1"
         id="stop4" />
    </linearGradient>
  </defs>
  <sodipodi:namedview
     pagecolor="#ffffff"
     bordercolor="#666666"
     borderopacity="1"
     objecttolerance="10"
     gridtolerance="10"
     guidetolerance="10"
     inkscape:pageopacity="0"
     inkscape:pageshadow="2"
     inkscape:window-width="2560"
     inkscape:window-height="1371"
     id="namedview16"
     showgrid="true"
     inkscape:zoom="1.0603119"
     inkscape:cx="142.88249"
     inkscape:cy="33.009155"
     inkscape:window-x="20"
     inkscape:window-y="20"
     inkscape:window-maximized="0"
     inkscape:current-layer="svg14"
     inkscape:document-rotation="0"
     inkscape:snap-object-midpoints="true"
     inkscape:pagecheckerboard="1"
     inkscape:showpageshadow="2"
     inkscape:deskcolor="#d1d1d1">
    <inkscape:grid
       type="xygrid"
       id="grid52"
       originx="-0.0087961219"
       originy="-0.0049772212"
       spacingy="1"
       spacingx="1"
       units="px" />
  </sodipodi:namedview>
  <rect
     y="-1.0986334e-05"
     x="0"
     height="180.10266"
     width="180.10266"
     id="rect965"
     style="font-variation-settings:normal;vector-effect:none;fill:url(#linearGradient4);fill-opacity:1;stroke:none;stroke-width:0.70309;stroke-linecap:butt;stroke-linejoin:miter;stroke-miterlimit:4;stroke-dasharray:none;stroke-dashoffset:0;stroke-opacity:1;-inkscape-stroke:none;stop-color:#000000"
     inkscape:export-xdpi="192"
     inkscape:export-ydpi="192" />
  <path
     id="path11985"
     style="fill:#ffffff;fill-opacity:1;stroke-width:0.999999"
     d="m 90.05132,12.378229 c -42.788335,0 -77.679169,34.913347 -77.679169,77.717216 0,42.803755 34.890834,77.717105 77.679169,77.717105 42.78811,0 77.67917,-34.91335 77.67917,-77.717105 0,-42.803869 -34.89106,-77.717216 -77.67917,-77.717216 z m 0,19.429361 c 32.28182,0 58.24992,25.978117 58.24992,58.287855 0,32.309515 -25.9681,58.287855 -58.24992,58.287855 -32.281935,0 -58.249921,-25.97834 -58.249921,-58.287855 0,-32.309738 25.967986,-58.287855 58.249921,-58.287855 z m 33.10951,19.429247 c -0.90727,-0.04503 -1.8599,0.136203 -2.80814,0.568449 L 76.541821,71.822907 c -2.119133,0.969177 -3.831571,2.681053 -4.800298,4.800298 L 51.724015,120.43396 c -2.310267,5.05481 2.892336,10.26045 7.950068,7.95018 l 43.810757,-20.01751 c 2.11936,-0.96917 3.83179,-2.68105 4.80041,-4.80041 l 20.01751,-43.810865 c 1.87712,-4.10938 -1.20624,-8.32502 -5.14193,-8.51908 z M 90.013386,80.399732 c 2.481026,0 4.95665,0.953419 6.849528,2.846072 3.785756,3.785645 3.785756,9.913412 0,13.69917 -3.785645,3.785646 -9.913299,3.785646 -13.698944,0 -3.78587,-3.785758 -3.78587,-9.913525 0,-13.69917 1.892654,-1.892766 4.368389,-2.846072 6.849416,-2.846072 z"
     mask="none" />
</svg>
