<?xml version="1.0" encoding="UTF-8" standalone="no"?>
<svg
   width="16"
   height="16"
   version="1.1"
   id="svg14"
   sodipodi:docname="favicon.svg"
   inkscape:version="1.4.4 (dcaf3e7d9e, 2026-05-05)"
   inkscape:export-filename="favicon.png"
   inkscape:export-xdpi="96"
   inkscape:export-ydpi="96"
   xml:space="preserve"
   xmlns:inkscape="http://www.inkscape.org/namespaces/inkscape"
   xmlns:sodipodi="http://sodipodi.sourceforge.net/DTD/sodipodi-0.dtd"
   xmlns:xlink="http://www.w3.org/1999/xlink"
   xmlns="http://www.w3.org/2000/svg"
   xmlns:svg="http://www.w3.org/2000/svg"><defs
     id="defs18"><linearGradient
       id="linearGradient2"
       inkscape:collect="always"><stop
         style="stop-color:#1a5fb4;stop-opacity:1;"
         offset="0"
         id="stop3" /><stop
         style="stop-color:#62a0ea;stop-opacity:1"
         offset="1"
         id="stop4" /></linearGradient><filter
       id="filter62647-5-1-29"
       inkscape:label="Better Shadow"
       style="color-interpolation-filters:sRGB"
       x="-0.14328897"
       y="-0.089033969"
       width="1.286578"
       height="1.3395338"><feFlood
         id="feFlood62637-04-2-75"
         result="flood"
         flood-color="rgb(0,0,0)"
         flood-opacity="0.180392" /><feComposite
         id="feComposite62639-87-2-64"
         result="composite1"
         operator="in"
         in2="SourceGraphic"
         in="flood" /><feGaussianBlur
         id="feGaussianBlur62641-1-7-63"
         result="blur"
         stdDeviation="7"
         in="composite1" /><feOffset
         id="feOffset62643-7-7-7"
         result="offset"
         dy="6"
         dx="0" /><feComposite
         id="feComposite62645-2-9-9"
         result="fbSourceGraphic"
         operator="over"
         in2="offset"
         in="SourceGraphic" /><feColorMatrix
         id="feColorMatrix62793-7-1-7"
         values="0 0 0 -1 0 0 0 0 -1 0 0 0 0 -1 0 0 0 0 1 0"
         in="fbSourceGraphic"
         result="fbSourceGraphicAlpha" /><feFlood
         in="fbSourceGraphic"
         result="flood"
         flood-color="rgb(0,0,0)"
         flood-opacity="0.34902"
         id="feFlood62795-2-4-49" /><feComposite
         result="composite1"
         operator="in"
         in="flood"
         id="feComposite62797-26-04-17"
         in2="fbSourceGraphic" /><feGaussianBlur
         result="blur"
         stdDeviation="3.5"
         in="composite1"
         id="feGaussianBlur62799-1-7-0" /><feOffset
         result="offset"
         dy="3"
         dx="0"
         id="feOffset62801-06-8-6" /><feComposite
         result="composite2"
         operator="over"
         in="fbSourceGraphic"
         id="feComposite62803-1-7-0"
         in2="offset" /></filter><linearGradient
       id="Gradient"
       x1="0"
       x2="0"
       y1="0"
       y2="256"
       gradientUnits="userSpaceOnUse"><stop
         offset="0%"
         style="stop-color:#C061CB;stop-opacity:1"
         id="stop1" /><stop
         offset="100%"
         style="stop-color:#FFBE6F;stop-opacity:1"
         id="stop2" /></linearGradient><filter
       id="alpha-to-white"
       x="0"
       y="0"
       width="1"
       height="1"><feColorMatrix
         in="SourceGraphic"
         type="matrix"
         values="0 0 0 1 0                              0 0 0 1 0                              0 0 0 1 0                              0 0 0 1 0"
         id="feColorMatrix2" /></filter><g
       id="child-svg"><svg
         width="16px"
         height="16px"
         viewBox="0 0 16 16"
         version="1.1"
         id="svg3"><g
           id="surface1075"><path
             style=" stroke:none;fill-rule:nonzero;fill:rgb(13.333334%,13.333334%,13.333334%);fill-opacity:1;"
             d="M 3 0.992188 C 1.355469 0.992188 0 2.347656 0 3.992188 L 0 7.992188 C 0 9.636719 1.355469 10.992188 3 10.992188 L 5 10.992188 L 5 8.992188 L 3 8.992188 C 2.429688 8.992188 2 8.5625 2 7.992188 L 2 3.992188 C 2 3.421875 2.429688 2.992188 3 2.992188 L 9 2.992188 C 9.570312 2.992188 10 3.421875 10 3.992188 L 10 5.992188 L 12 5.992188 L 12 3.992188 C 12 2.347656 10.644531 0.992188 9 0.992188 Z M 3 0.992188 "
             id="path2" /><path
             style=" stroke:none;fill-rule:nonzero;fill:rgb(13.333334%,13.333334%,13.333334%);fill-opacity:1;"
             d="M 7 4.992188 C 5.355469 4.992188 4 6.347656 4 7.992188 L 4 11.992188 C 4 13.636719 5.355469 14.992188 7 14.992188 L 13 14.992188 C 14.644531 14.992188 16 13.636719 16 11.992188 L 16 7.992188 C 16 6.347656 14.644531 4.992188 13 4.992188 Z M 7 6.992188 L 13 6.992188 C 13.570312 6.992188 14 7.421875 14 7.992188 L 14 11.992188 C 14 12.5625 13.570312 12.992188 13 12.992188 L 7 12.992188 C 6.429688 12.992188 6 12.5625 6 11.992188 L 6 7.992188 C 6 7.421875 6.429688 6.992188 7 6.992188 Z M 7 6.992188 "
             id="path3" /></g></svg></g><filter
       id="alpha-to-white-9"
       x="0"
       y="0"
       width="1"
       height="1"><feColorMatrix
         in="SourceGraphic"
         type="matrix"
         values="0 0 0 1 0                              0 0 0 1 0                              0 0 0 1 0                              0 0 0 1 0"
         id="feColorMatrix2-1" /></filter><linearGradient
       id="Gradient-5"
       x1="0"
       x2="0"
       y1="0"
       y2="256"
       gradientUnits="userSpaceOnUse"
       gradientTransform="matrix(0.18602606,0,0,0.18602606,623.2408,-571.38308)"><stop
         offset="0%"
         style="stop-color:#3584E4;stop-opacity:1"
         id="stop1-6" /><stop
         offset="100%"
         style="stop-color:#DC8ADD;stop-opacity:1"
         id="stop2-2" /></linearGradient><linearGradient
       inkscape:collect="always"
       xlink:href="#linearGradient2"
       id="linearGradient4"
       x1="582.495"
       y1="-584.87683"
       x2="582.495"
       y2="-512.91016"
       gradientUnits="userSpaceOnUse"
       gradientTransform="matrix(0.10078742,0,0,0.1511811,-426.33483,597.94231)" /></defs><sodipodi:namedview
     id="namedview16"
     pagecolor="#505050"
     bordercolor="#ffffff"
     borderopacity="1"
     inkscape:pageshadow="0"
     inkscape:pageopacity="0"
     inkscape:pagecheckerboard="1"
     showgrid="false"
     inkscape:current-layer="g12"
     inkscape:snap-nodes="false"
     inkscape:snap-others="false"
     inkscape:snap-bbox="true"
     inkscape:bbox-paths="true"
     inkscape:bbox-nodes="true"
     inkscape:showpageshadow="2"
     inkscape:deskcolor="#d1d1d1"
     inkscape:zoom="13.640625"
     inkscape:cx="32.109966"
     inkscape:cy="-1.1729668"
     inkscape:window-width="2506"
     inkscape:window-height="1269"
     inkscape:window-x="26"
     inkscape:window-y="23"
     inkscape:window-maximized="0"><inkscape:grid
       type="xygrid"
       id="grid20"
       originx="0"
       originy="0"
       spacingy="1"
       spacingx="1"
       units="px" /></sodipodi:namedview><g
     transform="translate(380 -506.52)"
     id="g12"><rect
       y="506.51999"
       x="-380"
       height="16.000002"
       width="16.000002"
       id="rect965"
       style="font-variation-settings:normal;vector-effect:none;fill:url(#linearGradient4);fill-opacity:1;stroke:none;stroke-width:0.70309;stroke-linecap:butt;stroke-linejoin:miter;stroke-miterlimit:4;stroke-dasharray:none;stroke-dashoffset:0;stroke-opacity:1;-inkscape-stroke:none;stop-color:#000000"
       inkscape:export-xdpi="192"
       inkscape:export-ydpi="192" /><rect
       style="fill:none;stroke:none;stroke-width:1"
       id="rect12059"
       width="64"
       height="64"
       x="-503.16977"
       y="546.35168"
       rx="0"
       ry="0" /><path
       id="path11985"
       style="fill:#ffffff;fill-opacity:1;stroke-width:0.999998"
       d="m -372,507.61965 c -3.80124,0 -6.90088,3.10164 -6.90088,6.90426 0,3.80261 3.09964,6.90425 6.90088,6.90425 3.80122,0 6.90088,-3.10164 6.90088,-6.90425 0,-3.80262 -3.09966,-6.90426 -6.90088,-6.90426 z m 0,1.72607 c 2.86786,0 5.17482,2.30785 5.17482,5.17819 0,2.87032 -2.30696,5.17819 -5.17482,5.17819 -2.86787,0 -5.17482,-2.30787 -5.17482,-5.17819 0,-2.87034 2.30695,-5.17819 5.17482,-5.17819 z m 2.94139,1.72606 c -0.0806,-0.004 -0.16523,0.0121 -0.24947,0.0505 l -3.89208,1.77833 c -0.18826,0.0861 -0.34039,0.23818 -0.42645,0.42645 l -1.77832,3.89207 c -0.20524,0.44906 0.25695,0.91152 0.70627,0.70628 l 3.89207,-1.77832 c 0.18828,-0.0861 0.34041,-0.23818 0.42646,-0.42646 l 1.77832,-3.89208 c 0.16676,-0.36507 -0.10716,-0.73958 -0.4568,-0.75682 z m -2.94476,2.59078 c 0.22041,0 0.44034,0.0847 0.6085,0.25284 0.33632,0.33631 0.33632,0.88069 0,1.21701 -0.33631,0.33631 -0.88068,0.33631 -1.21699,0 -0.33633,-0.33632 -0.33633,-0.8807 0,-1.21701 0.16814,-0.16815 0.38808,-0.25284 0.60849,-0.25284 z"
       mask="none" /><text
       xml:space="preserve"
       style="font-style:normal;font-variant:normal;font-weight:900;font-stretch:normal;font-size:33.7911px;line-height:1.25;font-family:Inter;-inkscape-font-specification:'Inter, Heavy';font-variant-ligatures:normal;font-variant-caps:normal;font-variant-numeric:normal;font-variant-east-asian:normal;text-align:start;text-decoration-color:#000000;letter-spacing:0px;word-spacing:0px;writing-mode:lr-tb;direction:ltr;text-anchor:start;fill:#ffffff;stroke-width:3;stroke-linecap:square;stroke-linejoin:round;stroke-dashoffset:26.4;stroke-opacity:0.430728;-inkscape-stroke:none;paint-order:stroke markers fill"
       x="-427.71585"
       y="271.08746"
       id="text3"><tspan
         sodipodi:role="line"
         id="tspan2"
         style="font-style:normal;font-variant:normal;font-weight:900;font-stretch:normal;font-size:33.7911px;font-family:Inter;-inkscape-font-specification:'Inter, Heavy';font-variant-ligatures:normal;font-variant-caps:normal;font-variant-numeric:normal;font-variant-east-asian:normal;stroke-width:3"
         x="-427.71585"
         y="271.08746">WebKitGTK</tspan></text></g></svg>
