<svg xmlns="http://www.w3.org/2000/svg" width="100" height="26"><g style="stroke-width:2.66667;fill:#fff"><g style="fill:#fff;stroke-width:.666667" transform="matrix(1.5 0 0 1.5 -988.994 -209.264)"><path d="M668 140c-4.405 0-7.996 3.594-7.996 8 0 4.406 3.591 8 7.996 8 4.404 0 7.996-3.594 7.996-8 0-4.406-3.591-8-7.996-8zm0 2a5.983 5.983 0 0 1 5.996 6c0 3.326-2.673 6-5.996 6a5.983 5.983 0 0 1-5.996-6c0-3.326 2.673-6 5.996-6zm3.408 2a.615.615 0 0 0-.289.059l-4.51 2.06c-.218.1-.394.276-.494.494l-2.06 4.51a.617.617 0 0 0 .818.818l4.51-2.06c.218-.1.394-.276.494-.494l2.06-4.51a.62.62 0 0 0-.529-.877zm-3.412 3.002a.997.997 0 1 1 .001 1.996.997.997 0 0 1 0-1.996z" style="fill:#fff;fill-opacity:1;stroke-width:.666667"/></g></g><g style="stroke-width:2.92128"><path d="m538.767-548.963-1.724-6.505h1.973l.52 2.524q.096.462.174 1.012.079.546.149 1.087.083-.54.17-1.087.087-.55.192-1.012l.576-2.524h1.764l.576 2.524q.105.458.188 1.004.087.541.17 1.078l.149-1.078q.078-.546.174-1.004l.524-2.524h1.973l-1.724 6.505h-1.995l-.646-2.65q-.088-.362-.153-.755-.066-.397-.122-.808-.057.406-.118.803-.057.393-.144.76l-.65 2.65zm10.098.087q-1.175 0-1.847-.663-.668-.668-.668-1.851 0-.756.301-1.319.306-.567.86-.882.555-.314 1.31-.314.738 0 1.284.306.545.301.842.864.301.559.301 1.336v.402h-3.178q.018.454.24.672.227.218.59.218.27 0 .462-.109.192-.113.271-.314l1.545.227q-.187.659-.785 1.043-.594.384-1.528.384zm-.782-3.082h1.51q-.082-.716-.754-.716-.673 0-.756.716zm6.998 3.056q-.515 0-.86-.244-.34-.25-.493-.62h-.044v.803h-1.737v-6.505h1.755v2.48h.026q.14-.376.484-.646.345-.27.887-.27.484 0 .916.257.437.257.712.812.275.55.275 1.436 0 .843-.262 1.397t-.698.83q-.437.27-.96.27zm-.646-1.345q.362 0 .559-.305.2-.306.2-.847 0-.546-.2-.851-.197-.31-.559-.31-.358 0-.567.31-.21.305-.21.851 0 .528.21.843.21.31.567.31zm3.257 1.284v-6.505h1.763v1.397l-.03 1.655q.17-.315.384-.633.218-.323.546-.747l1.292-1.672h2.091l-2.274 2.799 2.396 3.706h-2.078l-1.523-2.545-.804.921v1.624zm6.814 0v-4.88h1.755v4.88zm.873-5.378q-.358 0-.61-.236-.254-.236-.254-.568 0-.336.253-.567.253-.236.611-.236t.612.236q.253.231.253.567 0 .332-.253.568-.254.236-.612.236zm4.628.497v1.275h-.838v2.039q0 .305.331.305.08 0 .227-.017.153-.022.201-.04l.21 1.253q-.301.083-.568.11-.266.03-.502.03-1.654 0-1.654-1.48v-2.2h-.62v-1.275h.62v-1.161h1.755v1.161zm3.763 4.968q-.947 0-1.668-.401-.716-.406-1.117-1.153-.402-.746-.402-1.772 0-1.074.428-1.82.432-.752 1.152-1.14.72-.393 1.598-.393.769 0 1.388.288.62.284 1.009.79.393.502.458 1.157h-1.78q-.084-.336-.354-.515-.271-.183-.686-.183-.663 0-1.03.471-.367.472-.367 1.319 0 .855.35 1.335.353.48 1.038.48.59 0 .891-.248.301-.25.314-.677h-1.178v-1.257h2.88v.9q0 .89-.375 1.523-.375.628-1.039.964-.659.332-1.51.332zm3.213-5.169v-1.423h5.649v1.423h-1.943v5.082h-1.763v-5.082zm6.312 5.082v-6.505h1.764v1.397l-.03 1.655q.17-.315.384-.633.218-.323.545-.747l1.293-1.672h2.09l-2.274 2.799 2.397 3.706h-2.078l-1.524-2.545-.803.92v1.625z" aria-label="WebKitGTK" style="font-weight:900;font-size:8.94056px;line-height:1.25;font-family:Inter;-inkscape-font-specification:&quot;Inter, Heavy&quot;;letter-spacing:0;word-spacing:0;fill:#fff;stroke-width:2.31877;stroke-linecap:square;stroke-linejoin:round;stroke-dashoffset:26.4;stroke-opacity:.430728;paint-order:stroke markers fill" transform="matrix(1.2938 0 0 1.2938 -665.474 727.78)"/></g></svg>