<?xml version="1.0" encoding="UTF-8" standalone="no"?>
<svg
   sodipodi:docname="card.svg"
   inkscape:version="1.4 (e7c3feb100, 2024-10-09)"
   id="svg10448"
   version="1.1"
   viewBox="0 0 158.75 105.83334"
   height="400.00003"
   width="600"
   inkscape:export-filename="card.png"
   inkscape:export-xdpi="192"
   inkscape:export-ydpi="192"
   xml:space="preserve"
   xmlns:inkscape="http://www.inkscape.org/namespaces/inkscape"
   xmlns:sodipodi="http://sodipodi.sourceforge.net/DTD/sodipodi-0.dtd"
   xmlns:xlink="http://www.w3.org/1999/xlink"
   xmlns="http://www.w3.org/2000/svg"
   xmlns:svg="http://www.w3.org/2000/svg"
   xmlns:rdf="http://www.w3.org/1999/02/22-rdf-syntax-ns#"
   xmlns:cc="http://creativecommons.org/ns#"
   xmlns:dc="http://purl.org/dc/elements/1.1/"><defs
     id="defs10442"><linearGradient
       id="linearGradient2"
       inkscape:collect="always"><stop
         style="stop-color:#1a5fb4;stop-opacity:1;"
         offset="0"
         id="stop3" /><stop
         style="stop-color:#62a0ea;stop-opacity:1"
         offset="1"
         id="stop4" /></linearGradient><filter
       id="filter62647-5-1-29"
       inkscape:label="Better Shadow"
       style="color-interpolation-filters:sRGB"
       x="-0.14328897"
       y="-0.089033969"
       width="1.286578"
       height="1.3395338"><feFlood
         id="feFlood62637-04-2-75"
         result="flood"
         flood-color="rgb(0,0,0)"
         flood-opacity="0.180392" /><feComposite
         id="feComposite62639-87-2-64"
         result="composite1"
         operator="in"
         in2="SourceGraphic"
         in="flood" /><feGaussianBlur
         id="feGaussianBlur62641-1-7-63"
         result="blur"
         stdDeviation="7"
         in="composite1" /><feOffset
         id="feOffset62643-7-7-7"
         result="offset"
         dy="6"
         dx="0" /><feComposite
         id="feComposite62645-2-9-9"
         result="fbSourceGraphic"
         operator="over"
         in2="offset"
         in="SourceGraphic" /><feColorMatrix
         id="feColorMatrix62793-7-1-7"
         values="0 0 0 -1 0 0 0 0 -1 0 0 0 0 -1 0 0 0 0 1 0"
         in="fbSourceGraphic"
         result="fbSourceGraphicAlpha" /><feFlood
         in="fbSourceGraphic"
         result="flood"
         flood-color="rgb(0,0,0)"
         flood-opacity="0.34902"
         id="feFlood62795-2-4-49" /><feComposite
         result="composite1"
         operator="in"
         in="flood"
         id="feComposite62797-26-04-17"
         in2="fbSourceGraphic" /><feGaussianBlur
         result="blur"
         stdDeviation="3.5"
         in="composite1"
         id="feGaussianBlur62799-1-7-0" /><feOffset
         result="offset"
         dy="3"
         dx="0"
         id="feOffset62801-06-8-6" /><feComposite
         result="composite2"
         operator="over"
         in="fbSourceGraphic"
         id="feComposite62803-1-7-0"
         in2="offset" /></filter><linearGradient
       id="Gradient"
       x1="0"
       x2="0"
       y1="0"
       y2="256"
       gradientUnits="userSpaceOnUse"><stop
         offset="0%"
         style="stop-color:#C061CB;stop-opacity:1"
         id="stop1" /><stop
         offset="100%"
         style="stop-color:#FFBE6F;stop-opacity:1"
         id="stop2" /></linearGradient><filter
       id="alpha-to-white"
       x="0"
       y="0"
       width="1"
       height="1"><feColorMatrix
         in="SourceGraphic"
         type="matrix"
         values="0 0 0 1 0                              0 0 0 1 0                              0 0 0 1 0                              0 0 0 1 0"
         id="feColorMatrix2" /></filter><g
       id="child-svg"><svg
         width="16px"
         height="16px"
         viewBox="0 0 16 16"
         version="1.1"
         id="svg3"><g
           id="surface1075"><path
             style=" stroke:none;fill-rule:nonzero;fill:rgb(13.333334%,13.333334%,13.333334%);fill-opacity:1;"
             d="M 3 0.992188 C 1.355469 0.992188 0 2.347656 0 3.992188 L 0 7.992188 C 0 9.636719 1.355469 10.992188 3 10.992188 L 5 10.992188 L 5 8.992188 L 3 8.992188 C 2.429688 8.992188 2 8.5625 2 7.992188 L 2 3.992188 C 2 3.421875 2.429688 2.992188 3 2.992188 L 9 2.992188 C 9.570312 2.992188 10 3.421875 10 3.992188 L 10 5.992188 L 12 5.992188 L 12 3.992188 C 12 2.347656 10.644531 0.992188 9 0.992188 Z M 3 0.992188 "
             id="path2" /><path
             style=" stroke:none;fill-rule:nonzero;fill:rgb(13.333334%,13.333334%,13.333334%);fill-opacity:1;"
             d="M 7 4.992188 C 5.355469 4.992188 4 6.347656 4 7.992188 L 4 11.992188 C 4 13.636719 5.355469 14.992188 7 14.992188 L 13 14.992188 C 14.644531 14.992188 16 13.636719 16 11.992188 L 16 7.992188 C 16 6.347656 14.644531 4.992188 13 4.992188 Z M 7 6.992188 L 13 6.992188 C 13.570312 6.992188 14 7.421875 14 7.992188 L 14 11.992188 C 14 12.5625 13.570312 12.992188 13 12.992188 L 7 12.992188 C 6.429688 12.992188 6 12.5625 6 11.992188 L 6 7.992188 C 6 7.421875 6.429688 6.992188 7 6.992188 Z M 7 6.992188 "
             id="path3" /></g></svg></g><linearGradient
       id="Gradient-6"
       x1="0"
       x2="0"
       y1="0"
       y2="256"
       gradientUnits="userSpaceOnUse"><stop
         offset="0%"
         style="stop-color:#C061CB;stop-opacity:1"
         id="stop1-7" /><stop
         offset="100%"
         style="stop-color:#FFBE6F;stop-opacity:1"
         id="stop2-5" /></linearGradient><filter
       id="alpha-to-white-9"
       x="0"
       y="0"
       width="1"
       height="1"><feColorMatrix
         in="SourceGraphic"
         type="matrix"
         values="0 0 0 1 0                              0 0 0 1 0                              0 0 0 1 0                              0 0 0 1 0"
         id="feColorMatrix2-1" /></filter><linearGradient
       id="Gradient-5"
       x1="0"
       x2="0"
       y1="0"
       y2="256"
       gradientUnits="userSpaceOnUse"
       gradientTransform="matrix(0.18602606,0,0,0.18602606,623.2408,-571.38308)"><stop
         offset="0%"
         style="stop-color:#3584E4;stop-opacity:1"
         id="stop1-6" /><stop
         offset="100%"
         style="stop-color:#DC8ADD;stop-opacity:1"
         id="stop2-2" /></linearGradient><linearGradient
       inkscape:collect="always"
       xlink:href="#linearGradient2"
       id="linearGradient4"
       x1="582.495"
       y1="-584.87683"
       x2="582.495"
       y2="-512.91016"
       gradientUnits="userSpaceOnUse" /></defs><sodipodi:namedview
     inkscape:snap-bbox-midpoints="true"
     inkscape:snap-bbox-edge-midpoints="true"
     inkscape:bbox-nodes="true"
     inkscape:bbox-paths="true"
     inkscape:snap-bbox="true"
     inkscape:window-maximized="0"
     inkscape:window-y="23"
     inkscape:window-x="26"
     inkscape:window-height="1221"
     inkscape:window-width="2249"
     units="px"
     showgrid="false"
     inkscape:document-rotation="0"
     inkscape:current-layer="layer1"
     inkscape:document-units="px"
     inkscape:cy="224"
     inkscape:cx="284.5"
     inkscape:zoom="1"
     inkscape:pageshadow="2"
     inkscape:pageopacity="0.0"
     borderopacity="1.0"
     bordercolor="#666666"
     pagecolor="#ffffff"
     id="base"
     inkscape:snap-page="true"
     inkscape:snap-text-baseline="true"
     inkscape:snap-center="true"
     inkscape:snap-object-midpoints="true"
     inkscape:pagecheckerboard="1"
     inkscape:showpageshadow="0"
     inkscape:deskcolor="#d1d1d1"><inkscape:grid
       originy="1.2031857e-13"
       originx="0"
       id="grid11077"
       type="xygrid"
       spacingy="1"
       spacingx="1"
       units="px"
       visible="false" /></sodipodi:namedview><metadata
     id="metadata10445"><rdf:RDF><cc:Work
         rdf:about=""><dc:format>image/svg+xml</dc:format><dc:type
           rdf:resource="http://purl.org/dc/dcmitype/StillImage" /><dc:title /></cc:Work></rdf:RDF></metadata><g
     transform="translate(-459.7283,604.72058)"
     id="layer1"
     inkscape:groupmode="layer"
     inkscape:label="Layer 1"><rect
       y="-604.72058"
       x="459.7283"
       height="105.83334"
       width="158.75"
       id="rect965"
       style="fill:url(#linearGradient4);fill-opacity:1;stroke:none;stroke-width:0.186026;stroke-linecap:butt;stroke-linejoin:miter;font-variation-settings:normal;opacity:1;vector-effect:none;stroke-miterlimit:4;stroke-dasharray:none;stroke-dashoffset:0;stroke-opacity:1;-inkscape-stroke:none;stop-color:#000000;stop-opacity:1"
       inkscape:export-xdpi="192"
       inkscape:export-ydpi="192" /><g
       id="g2"
       transform="translate(-11.699514,0.52917195)"><g
         id="g12453"
         inkscape:label="explore discover navigate north south west east"
         transform="matrix(1.0583333,0,0,1.0583333,-181.62171,-708.96641)"
         style="fill:#ffffff;stroke-width:0.25"><title
           id="title12455">compass2</title><rect
           style="fill:none;stroke:none;stroke-width:0.25"
           id="rect12059"
           width="16"
           height="16"
           x="660"
           y="140"
           rx="0"
           ry="0" /><path
           id="path11985"
           style="fill:#ffffff;fill-opacity:1;stroke-width:0.25"
           d="m 668,140 c -4.40452,0 -7.9961,3.59388 -7.9961,8 0,4.40611 3.59158,8 7.9961,8 4.4045,0 7.99609,-3.59389 7.99609,-8 0,-4.40612 -3.59159,-8 -7.99609,-8 z m 0,2 c 3.323,0 5.99609,2.67413 5.99609,6 0,3.32586 -2.67309,6 -5.99609,6 -3.32302,0 -5.9961,-2.67414 -5.9961,-6 0,-3.32587 2.67308,-6 5.9961,-6 z m 3.4082,2 c -0.0935,-0.005 -0.19145,0.014 -0.28906,0.0586 l -4.50977,2.06055 c -0.21815,0.0997 -0.39442,0.27599 -0.49414,0.49414 l -2.06055,4.50977 c -0.23781,0.52032 0.29773,1.05617 0.81836,0.81836 l 4.50977,-2.06055 c 0.21816,-0.0997 0.39443,-0.27598 0.49414,-0.49414 l 2.06055,-4.50977 c 0.19322,-0.42302 -0.12416,-0.85696 -0.5293,-0.87695 z m -3.41211,3.00195 c 0.25539,0 0.51023,0.0981 0.70508,0.29297 0.38969,0.38969 0.38969,1.02046 0,1.41016 -0.38969,0.38969 -1.02046,0.38969 -1.41015,0 -0.3897,-0.3897 -0.3897,-1.02047 0,-1.41016 0.19484,-0.19484 0.44968,-0.29297 0.70507,-0.29297 z"
           mask="none" /></g><text
         xml:space="preserve"
         style="font-style:normal;font-variant:normal;font-weight:900;font-stretch:normal;font-size:8.94056px;line-height:1.25;font-family:Inter;-inkscape-font-specification:'Inter, Heavy';font-variant-ligatures:normal;font-variant-caps:normal;font-variant-numeric:normal;font-variant-east-asian:normal;text-align:start;text-decoration-color:#000000;letter-spacing:0px;word-spacing:0px;writing-mode:lr-tb;direction:ltr;text-anchor:start;fill:#ffffff;stroke-width:0.79375;stroke-linecap:square;stroke-linejoin:round;stroke-dashoffset:26.4;stroke-opacity:0.430728;-inkscape-stroke:none;paint-order:stroke markers fill"
         x="536.8421"
         y="-548.96307"
         id="text2"><tspan
           sodipodi:role="line"
           id="tspan1"
           style="font-style:normal;font-variant:normal;font-weight:900;font-stretch:normal;font-size:8.94056px;font-family:Inter;-inkscape-font-specification:'Inter, Heavy';font-variant-ligatures:normal;font-variant-caps:normal;font-variant-numeric:normal;font-variant-east-asian:normal;stroke-width:0.79375"
           x="536.8421"
           y="-548.96307">WebkitGtk</tspan></text></g></g></svg>
