<?xml version="1.0" encoding="UTF-8" standalone="no"?>
<svg
   width="100"
   height="26"
   version="1.1"
   id="svg10"
   sodipodi:docname="page-logo.svg"
   inkscape:version="1.4 (e7c3feb100, 2024-10-09)"
   xmlns:inkscape="http://www.inkscape.org/namespaces/inkscape"
   xmlns:sodipodi="http://sodipodi.sourceforge.net/DTD/sodipodi-0.dtd"
   xmlns="http://www.w3.org/2000/svg"
   xmlns:svg="http://www.w3.org/2000/svg">
  <defs
     id="defs14" />
  <sodipodi:namedview
     id="namedview12"
     pagecolor="#505050"
     bordercolor="#ffffff"
     borderopacity="1"
     inkscape:pageshadow="0"
     inkscape:pageopacity="0"
     inkscape:pagecheckerboard="1"
     showgrid="true"
     width="137px"
     inkscape:current-layer="svg10"
     showguides="true"
     inkscape:guide-bbox="true"
     inkscape:showpageshadow="2"
     inkscape:deskcolor="#d1d1d1"
     inkscape:zoom="6.7542296"
     inkscape:cx="40.123007"
     inkscape:cy="14.065261"
     inkscape:window-width="2263"
     inkscape:window-height="1069"
     inkscape:window-x="26"
     inkscape:window-y="23"
     inkscape:window-maximized="0">
    <inkscape:grid
       type="xygrid"
       id="grid5602"
       originx="0"
       originy="0"
       spacingy="1"
       spacingx="1"
       units="px" />
    <sodipodi:guide
       position="60,11"
       orientation="0,-1"
       id="guide140"
       inkscape:locked="false" />
  </sodipodi:namedview>
  <g
     id="g2"
     transform="matrix(1.4173229,0,0,1.4173229,-731.57754,795.57065)"
     style="stroke-width:2.66667;fill:#000000">
    <g
       id="g12453"
       inkscape:label="explore discover navigate north south west east"
       transform="matrix(1.0583333,0,0,1.0583333,-181.62171,-708.96641)"
       style="fill:#000000;stroke-width:0.666667">
      <title
         id="title12455">compass2</title>
      <path
         id="path11985"
         style="fill:#000000;fill-opacity:1;stroke-width:0.666667"
         d="m 668,140 c -4.40452,0 -7.9961,3.59388 -7.9961,8 0,4.40611 3.59158,8 7.9961,8 4.4045,0 7.99609,-3.59389 7.99609,-8 0,-4.40612 -3.59159,-8 -7.99609,-8 z m 0,2 c 3.323,0 5.99609,2.67413 5.99609,6 0,3.32586 -2.67309,6 -5.99609,6 -3.32302,0 -5.9961,-2.67414 -5.9961,-6 0,-3.32587 2.67308,-6 5.9961,-6 z m 3.4082,2 c -0.0935,-0.005 -0.19145,0.014 -0.28906,0.0586 l -4.50977,2.06055 c -0.21815,0.0997 -0.39442,0.27599 -0.49414,0.49414 l -2.06055,4.50977 c -0.23781,0.52032 0.29773,1.05617 0.81836,0.81836 l 4.50977,-2.06055 c 0.21816,-0.0997 0.39443,-0.27598 0.49414,-0.49414 l 2.06055,-4.50977 c 0.19322,-0.42302 -0.12416,-0.85696 -0.5293,-0.87695 z m -3.41211,3.00195 c 0.25539,0 0.51023,0.0981 0.70508,0.29297 0.38969,0.38969 0.38969,1.02046 0,1.41016 -0.38969,0.38969 -1.02046,0.38969 -1.41015,0 -0.3897,-0.3897 -0.3897,-1.02047 0,-1.41016 0.19484,-0.19484 0.44968,-0.29297 0.70507,-0.29297 z"
         mask="none" />
    </g>
    <path
       d="m 538.76729,-548.96307 -1.72437,-6.50461 h 1.97321 l 0.51949,2.52326 q 0.096,0.46275 0.17462,1.0128 0.0786,0.54569 0.14843,1.08701 0.0829,-0.54132 0.17025,-1.08701 0.0873,-0.55005 0.19209,-1.0128 l 0.57624,-2.52326 h 1.76367 l 0.57624,2.52326 q 0.10478,0.45838 0.18772,1.00407 0.0873,0.54132 0.17026,1.07828 0.0742,-0.53696 0.14842,-1.07828 0.0786,-0.54569 0.17462,-1.00407 l 0.52386,-2.52326 h 1.97321 l -1.72437,6.50461 h -1.99504 l -0.64609,-2.64987 q -0.0873,-0.36233 -0.1528,-0.75523 -0.0655,-0.39726 -0.12223,-0.80762 -0.0567,0.40599 -0.11787,0.80325 -0.0568,0.3929 -0.14406,0.7596 l -0.65046,2.64987 z m 10.09742,0.0873 q -1.17432,0 -1.84661,-0.66356 -0.66792,-0.66792 -0.66792,-1.85098 0,-0.75523 0.30122,-1.31838 0.30558,-0.56752 0.86,-0.88183 0.55442,-0.31432 1.30966,-0.31432 0.73777,0 1.28346,0.30559 0.54568,0.30122 0.84254,0.86437 0.30122,0.55878 0.30122,1.33584 v 0.40163 h -3.17809 q 0.0175,0.45401 0.2401,0.67229 0.22701,0.21827 0.58935,0.21827 0.27066,0 0.46274,-0.10913 0.19208,-0.11351 0.27066,-0.31432 l 1.54539,0.22701 q -0.18772,0.65919 -0.78579,1.04335 -0.59371,0.38417 -1.52793,0.38417 z m -0.78142,-3.08205 h 1.51046 q -0.0829,-0.71595 -0.75523,-0.71595 -0.67229,0 -0.75523,0.71595 z m 6.9979,3.05585 q -0.51513,0 -0.86,-0.24447 -0.34051,-0.24883 -0.4933,-0.6199 h -0.0437 v 0.80326 h -1.73747 v -6.50461 h 1.75493 v 2.47961 h 0.0262 q 0.13969,-0.37544 0.48457,-0.6461 0.34487,-0.27066 0.8862,-0.27066 0.48457,0 0.91675,0.25757 0.43655,0.25756 0.71158,0.81198 0.27503,0.55005 0.27503,1.43625 0,0.84255 -0.26193,1.39697 -0.26193,0.55441 -0.69848,0.82944 -0.43655,0.27066 -0.96042,0.27066 z m -0.64609,-1.34457 q 0.36234,0 0.55878,-0.30559 0.20082,-0.30558 0.20082,-0.84691 0,-0.54569 -0.20082,-0.85127 -0.19644,-0.30995 -0.55878,-0.30995 -0.35797,0 -0.56752,0.30995 -0.20954,0.30558 -0.20954,0.85127 0,0.52823 0.20954,0.84255 0.20955,0.30995 0.56752,0.30995 z m 3.28286,1.28346 v -6.50461 h 1.75494 v 3.2654 h 0.0611 l 1.17869,-1.64143 h 1.97321 l -1.65889,2.1391 1.70255,2.74154 h -1.99941 l -0.99533,-1.72001 -0.26193,0.33177 v 1.38824 z m 5.42196,0 v -4.88064 h 1.75494 v 4.88064 z m 0.8731,-5.37831 q -0.35797,0 -0.61117,-0.23574 -0.2532,-0.23573 -0.2532,-0.56751 0,-0.33615 0.2532,-0.56752 0.2532,-0.23574 0.61117,-0.23574 0.35798,0 0.61118,0.23574 0.2532,0.23137 0.2532,0.56752 0,0.33178 -0.2532,0.56751 -0.2532,0.23574 -0.61118,0.23574 z m 4.62744,0.49767 v 1.27473 h -0.83818 v 2.03869 q 0,0.30558 0.33178,0.30558 0.0786,0 0.22701,-0.0175 0.15279,-0.0218 0.20081,-0.0393 l 0.20955,1.2529 q -0.30122,0.0829 -0.56752,0.10914 -0.2663,0.0306 -0.50203,0.0306 -1.65453,0 -1.65453,-1.47991 v -2.20021 h -0.6199 v -1.27473 h 0.6199 v -1.16123 h 1.75493 v 1.16123 z m 3.76307,4.96795 q -0.94731,0 -1.66762,-0.40163 -0.71595,-0.40599 -1.11757,-1.15249 -0.40163,-0.74651 -0.40163,-1.7724 0,-1.07392 0.42782,-1.82042 0.43219,-0.75086 1.15249,-1.1394 0.72031,-0.39289 1.59778,-0.39289 0.76833,0 1.38823,0.28812 0.6199,0.28376 1.00843,0.79016 0.3929,0.50203 0.45838,1.15686 h -1.78112 q -0.0829,-0.33614 -0.35361,-0.51513 -0.27066,-0.18335 -0.68539,-0.18335 -0.66355,0 -1.03026,0.47147 -0.3667,0.47148 -0.3667,1.31839 0,0.85564 0.34924,1.33584 0.35361,0.48021 1.03899,0.48021 0.58935,0 0.89057,-0.24884 0.30122,-0.24883 0.31431,-0.67665 h -1.17868 v -1.25727 h 2.88123 v 0.8993 q 0,0.89056 -0.37543,1.52356 -0.37544,0.62863 -1.03899,0.96478 -0.65919,0.33178 -1.51047,0.33178 z m 6.55263,-4.96795 v 1.27473 h -0.83818 v 2.03869 q 0,0.30558 0.33178,0.30558 0.0786,0 0.22701,-0.0175 0.15279,-0.0218 0.20081,-0.0393 l 0.20954,1.2529 q -0.30122,0.0829 -0.56751,0.10914 -0.2663,0.0306 -0.50204,0.0306 -1.65452,0 -1.65452,-1.47991 v -2.20021 h -0.61991 v -1.27473 h 0.61991 v -1.16123 h 1.75493 v 1.16123 z m 0.7596,4.88064 v -6.50461 h 1.75493 v 3.2654 h 0.0611 l 1.17868,-1.64143 h 1.97321 l -1.65889,2.1391 1.70255,2.74154 h -1.9994 l -0.99534,-1.72001 -0.26193,0.33177 v 1.38824 z"
       id="text2"
       style="font-weight:900;font-size:8.94056px;line-height:1.25;font-family:Inter;-inkscape-font-specification:'Inter, Heavy';letter-spacing:0px;word-spacing:0px;fill:#000000;stroke-width:2.11667;stroke-linecap:square;stroke-linejoin:round;stroke-dashoffset:26.4;stroke-opacity:0.430728;paint-order:stroke markers fill"
       aria-label="WebkitGtk" />
  </g>
</svg>
