<svg xmlns="http://www.w3.org/2000/svg" xmlns:xlink="http://www.w3.org/1999/xlink" width="368.25" height="151.415"><defs><path id="g" d="M2.125 0h-.516v-3.406q.013-.153.032-.328l-.172.172-.203.156-.453.375-.282-.36 1.156-.89h.438Zm0 0"/><path id="h" d="M.328-1.828q-.002-.468.078-.906.076-.45.297-.813.218-.357.594-.578c.258-.145.594-.219 1-.219.082 0 .172.008.265.016l.25.031v.453a1.4 1.4 0 0 0-.234-.047 3 3 0 0 0-.281-.015c-.274 0-.5.047-.688.14q-.269.129-.437.375a1.7 1.7 0 0 0-.234.547 4 4 0 0 0-.079.672h.032q.139-.217.39-.36c.164-.1.375-.155.625-.155.375 0 .676.117.907.343q.341.347.343.969 0 .676-.375 1.063-.377.375-1 .375a1.35 1.35 0 0 1-.734-.204C.828-.273.648-.484.516-.766Q.328-1.185.328-1.828M1.781-.391q.375 0 .61-.234.234-.246.234-.75-.002-.405-.203-.64-.204-.249-.625-.25a1 1 0 0 0-.5.124.9.9 0 0 0-.328.297.66.66 0 0 0-.11.36q0 .27.094.515.106.252.313.422.198.157.515.156m0 0"/><path id="i" d="M3.125 0H.281v-.437l1.125-1.141q.327-.31.547-.563.217-.263.328-.5.124-.248.125-.53 0-.358-.219-.532a.75.75 0 0 0-.53-.188c-.212 0-.4.04-.563.11a2.4 2.4 0 0 0-.469.297l-.281-.36q.246-.201.562-.344c.219-.101.469-.156.75-.156q.592.001.938.313.359.3.36.828c0 .219-.048.43-.142.625-.093.2-.226.398-.39.594q-.252.282-.578.593L.954-.5v.016h2.171Zm0 0"/><path id="j" d="M1.156-.625q-.082.314-.234.688C.828.32.734.563.64.78H.25Q.325.437.406.016q.095-.403.14-.72h.563Zm0 0"/><path id="k" d="M1.656-2.625q.656 0 1.047.328.389.329.39.922 0 .676-.421 1.063c-.281.25-.68.375-1.188.375C1.266.063 1.054.039.86 0a1.7 1.7 0 0 1-.484-.172v-.5q.216.128.531.203c.207.055.407.078.594.078.313 0 .563-.07.75-.218.195-.157.297-.391.297-.703 0-.282-.09-.493-.266-.641q-.25-.234-.812-.234-.158 0-.375.03a5 5 0 0 0-.344.063l-.266-.172.157-2.015h2.156v.484H1.094l-.11 1.235q.105-.013.282-.032.169-.03.39-.031m0 0"/><path id="l" d="m.813 0 1.765-3.797H.266v-.484H3.14v.406L1.39 0Zm0 0"/><path id="m" d="M3.313-.969h-.626V0h-.515v-.969H.125v-.453l2.016-2.89h.547v2.859h.624ZM2.172-2.797q0-.31.015-.531c.008-.145.016-.285.016-.422h-.015a2 2 0 0 1-.126.266 3 3 0 0 1-.14.203L.64-1.453h1.53Zm0 0"/><path id="n" d="M4.188-2.86c0 .618-.07 1.141-.204 1.579q-.187.657-.609 1.015-.409.345-1.094.344Q1.311.08.844-.703C.539-1.223.39-1.941.39-2.86q0-.938.187-1.594c.125-.438.32-.77.594-1 .281-.227.648-.344 1.11-.344.632 0 1.109.262 1.421.781.32.512.485 1.23.485 2.157m-3.094 0q-.002 1.174.265 1.766.265.58.922.578.638.001.906-.578.282-.592.282-1.765 0-1.172-.281-1.75-.269-.593-.907-.594-.657.002-.922.594c-.18.386-.265.968-.265 1.75m0 0"/><path id="o" d="M2.844 0h-.688v-4.547q.013-.199.031-.422a5 5 0 0 1-.234.219 3 3 0 0 0-.266.219l-.609.484-.36-.469L2.25-5.719h.594Zm0 0"/><path id="p" d="M4.156 0H.391v-.578l1.484-1.516c.29-.289.535-.547.734-.765q.296-.34.438-.657c.101-.218.156-.457.156-.718q0-.47-.281-.703a1.06 1.06 0 0 0-.719-.25q-.423 0-.734.14-.315.142-.64.406l-.376-.484q.328-.281.766-.469.434-.201.984-.203c.531 0 .945.137 1.25.406q.47.411.469 1.125 0 .44-.188.829a3.3 3.3 0 0 1-.5.78c-.218.25-.476.524-.765.813L1.266-.672v.031h2.89Zm0 0"/><path id="q" d="M3.938-4.375q0 .581-.329.922-.316.33-.843.437v.047q.687.082 1.015.438.342.344.344.906 0 .504-.234.89-.237.377-.72.594-.486.219-1.25.22A4.3 4.3 0 0 1 1.095 0a2.6 2.6 0 0 1-.735-.234v-.657q.358.176.766.282.42.093.813.093.762.001 1.109-.296c.226-.196.344-.473.344-.829 0-.351-.141-.609-.422-.765s-.68-.235-1.188-.235h-.547v-.609h.563c.469 0 .82-.098 1.062-.297a.96.96 0 0 0 .36-.781q0-.42-.281-.64-.282-.235-.75-.235a2 2 0 0 0-.797.14q-.33.143-.641.344l-.36-.484q.312-.233.75-.406.452-.188 1.032-.188c.601 0 1.047.137 1.328.406q.437.409.438 1.016m0 0"/><path id="r" d="M4.422-1.297h-.844V0h-.672v-1.297H.172v-.594L2.859-5.75h.72v3.828h.843ZM2.906-3.734q-.001-.405.016-.703.014-.295.015-.547h-.03q-.065.14-.157.328-.094.175-.187.281L.859-1.922h2.047Zm0 0"/><path id="s" d="M2.203-3.5q.874.002 1.39.438c.352.292.532.703.532 1.234q-.002.89-.578 1.406c-.375.336-.899.5-1.563.5A4.3 4.3 0 0 1 1.156 0 2 2 0 0 1 .5-.234v-.657q.293.176.703.282.406.093.781.093.639.001 1.032-.296c.257-.208.39-.52.39-.938q-.002-.561-.344-.86-.344-.294-1.093-.296-.223 0-.516.047a17 17 0 0 0-.469.062l-.343-.219.218-2.703h2.86v.64H1.453l-.14 1.657q.14-.012.375-.047.234-.03.515-.031m0 0"/><path id="t" d="M.438-2.437q-.001-.621.109-1.22c.07-.394.203-.753.39-1.077.188-.32.454-.578.797-.766.344-.195.786-.297 1.329-.297.101 0 .222.008.359.016q.201.016.344.062v.594a2 2 0 0 0-.344-.062 2 2 0 0 0-.344-.032q-.562 0-.937.188a1.5 1.5 0 0 0-.578.515q-.205.315-.297.735a5.4 5.4 0 0 0-.125.875h.046a1.5 1.5 0 0 1 .516-.469q.328-.201.844-.203.732 0 1.187.453.47.456.47 1.281-.002.908-.5 1.422c-.325.336-.763.5-1.313.5q-.551.002-1-.265C1.098-.375.863-.649.688-1.016q-.251-.561-.25-1.421M2.375-.516c.332 0 .602-.101.813-.312q.311-.327.312-1.016 0-.543-.281-.86-.27-.327-.813-.327-.375.001-.656.156a1.2 1.2 0 0 0-.437.406.9.9 0 0 0-.157.5q-.001.346.125.688c.094.218.227.402.407.547.187.148.414.218.687.218m0 0"/><path id="u" d="m1.094 0 2.343-5.078H.36v-.64h3.829v.546L1.858 0Zm0 0"/><path id="v" d="M3.219-5.156q-.926.001-1.453.625-.516.61-.516 1.672-.001 1.066.484 1.687.5.626 1.485.625.375 0 .703-.062.34-.078.656-.172v.625c-.21.086-.43.14-.656.172q-.344.06-.813.062c-.586 0-1.07-.117-1.453-.36a2.23 2.23 0 0 1-.875-1.015C.582-1.742.484-2.266.484-2.859q-.002-.874.313-1.532.328-.655.937-1.03.621-.375 1.5-.376.904.002 1.579.344l-.297.61a4 4 0 0 0-.594-.22 2.5 2.5 0 0 0-.703-.093m0 0"/><path id="w" d="M2.297-4.36c.531 0 .922.118 1.172.344q.375.345.375 1.094V0h-.516l-.14-.61h-.032a1.95 1.95 0 0 1-.594.532c-.199.101-.48.156-.843.156q-.581 0-.969-.297Q.375-.53.375-1.187c0-.426.164-.754.5-.985q.498-.356 1.547-.39l.734-.016v-.266q0-.528-.234-.734-.234-.218-.656-.219c-.23 0-.45.04-.657.11a4 4 0 0 0-.546.218l-.22-.515q.282-.154.657-.266c.258-.07.523-.11.797-.11m.219 2.282q-.799.034-1.11.265a.72.72 0 0 0-.312.626c0 .242.07.417.218.53.145.118.333.173.563.173q.544 0 .906-.297.36-.31.36-.938v-.375Zm0 0"/><path id="x" d="M1.047-5.89a.44.44 0 0 1 .281.109q.124.093.125.328-.001.236-.125.344A.42.42 0 0 1 1.047-5a.45.45 0 0 1-.313-.11q-.11-.107-.109-.343-.001-.235.11-.328a.47.47 0 0 1 .312-.11m.344 1.609V0H.688v-4.281Zm0 0"/><path id="y" d="M2.688-4.375c.07 0 .156.008.25.016q.138.017.25.046l-.094.641a2 2 0 0 0-.235-.047 2 2 0 0 0-.234-.015q-.328 0-.61.187-.282.173-.453.5a1.6 1.6 0 0 0-.171.766V0H.688v-4.281h.562l.094.781h.031c.133-.238.313-.441.531-.61.219-.175.477-.265.782-.265m0 0"/><path id="z" d="M4.406-2.156q0 1.064-.547 1.656-.533.58-1.453.578a2.05 2.05 0 0 1-1.015-.25 1.9 1.9 0 0 1-.703-.766q-.251-.498-.25-1.218-.001-1.06.53-1.64.544-.577 1.47-.579.574.001 1.015.266.45.268.703.765c.164.324.25.719.25 1.188m-3.234 0q0 .767.297 1.219.294.438.953.437.655 0 .953-.437.312-.452.313-1.22-.001-.749-.313-1.187-.299-.435-.953-.437-.659.002-.953.437-.298.439-.297 1.188m0 0"/><path id="A" d="M4.016-1.531q0 .766-.563 1.187-.55.423-1.484.422-.47 0-.875-.078C.82-.04.594-.102.406-.187v-.688q.296.129.719.234.422.094.89.094.624.001.954-.25a.8.8 0 0 0 .328-.672.84.84 0 0 0-.125-.468q-.112-.187-.406-.344a5.5 5.5 0 0 0-.813-.36q-.736-.264-1.11-.64-.36-.388-.359-1.063c0-.3.07-.554.22-.765.155-.22.366-.383.64-.5q.42-.188.953-.188a3.8 3.8 0 0 1 1.578.328l-.219.61A4 4 0 0 0 3-5.062a2.7 2.7 0 0 0-.719-.094q-.532 0-.812.234a.73.73 0 0 0-.266.594c0 .187.04.351.125.484q.122.19.39.344.266.14.735.328.498.189.844.406.356.207.531.5.188.3.188.735m0 0"/><path id="B" d="M1.375-2.906c0 .086-.008.199-.016.344a5 5 0 0 1-.015.359h.031q.047-.06.14-.188.095-.122.188-.25.105-.122.188-.203L3.25-4.28h.828L2.344-2.453 4.204 0h-.845l-1.5-2-.484.422V0H.688v-6.078h.687Zm0 0"/><path id="C" d="M4.703 0 2.641-6.719h-.047q.013.237.031.719.03.486.047 1.031.03.551.031.985V0H1.078v-8.562h2.469l2.031 6.546h.031l2.157-6.546h2.468V0H8.547v-4.062q0-.406.015-.922.013-.53.032-1c.008-.32.02-.563.031-.72h-.047L6.375 0Zm0 0"/><path id="D" d="M6.89-3.281Q6.89-1.654 6.032-.766 5.17.125 3.703.125q-.926 0-1.64-.39Q1.358-.67.952-1.438.545-2.202.547-3.282c0-1.094.281-1.93.844-2.516q.855-.874 2.343-.875.922.001 1.625.406a2.8 2.8 0 0 1 1.125 1.141q.406.752.407 1.844m-4.53 0c0 .648.1 1.136.312 1.469q.327.501 1.047.5c.469 0 .804-.165 1.015-.5.22-.333.329-.82.329-1.47q0-.982-.329-1.468-.316-.482-1.03-.484-.704.002-1.032.484-.315.486-.313 1.469m0 0"/><path id="E" d="M3.703-1.312q.293 0 .563-.047.281-.061.562-.157v1.329c-.2.085-.437.156-.719.218-.28.063-.59.094-.921.094-.399 0-.75-.062-1.063-.187a1.6 1.6 0 0 1-.734-.672c-.18-.32-.266-.758-.266-1.313v-3.156H.281v-.766l.985-.593.515-1.375h1.14v1.39H4.75v1.344H2.922v3.156q-.001.361.203.547.216.188.578.188m0 0"/><path id="F" d="M1.844-9.125q.388 0 .672.188c.195.124.297.355.297.687 0 .336-.102.563-.297.688a1.2 1.2 0 0 1-.672.187q-.423 0-.703-.187-.282-.186-.282-.688 0-.499.282-.687t.703-.188m.875 2.578V0H.938v-6.547Zm0 0"/><path id="G" d="M4.656-6.672q1.06.002 1.688.578.64.563.64 1.828V0h-1.78v-3.828c0-.469-.09-.82-.266-1.063q-.252-.358-.797-.359-.815 0-1.125.563c-.2.375-.297.914-.297 1.609V0H.938v-6.547h1.359l.25.828h.094q.31-.497.859-.718a2.9 2.9 0 0 1 1.156-.235m0 0"/><path id="H" d="M3.625-6.687q1.313.002 2.016.578.703.563.703 1.734V0h-1.25L4.75-.89h-.047q-.422.534-.89.78-.471.235-1.282.235-.879 0-1.453-.516Q.498-.905.5-1.953c0-.695.242-1.211.734-1.547q.733-.5 2.204-.547l1.14-.031v-.297q0-.516-.281-.75-.27-.234-.75-.234-.469 0-.938.14a7 7 0 0 0-.906.328L1.11-6.094a5 5 0 0 1 1.172-.437 5.8 5.8 0 0 1 1.344-.157m.25 3.671q-.862.035-1.203.329-.328.28-.328.75 0 .408.234.578.233.174.625.172.575 0 .969-.344.406-.341.406-.969v-.531Zm0 0"/><path id="I" d="M4.594-6.672c.093 0 .195.008.312.016q.187.018.297.031l-.14 1.688a1 1 0 0 0-.25-.047Q4.654-4.998 4.53-5a2.6 2.6 0 0 0-.875.156 1.44 1.44 0 0 0-.687.532q-.251.361-.25.968V0H.938v-6.547h1.359l.265 1.094h.079q.279-.497.78-.86a2 2 0 0 1 1.173-.359m0 0"/><path id="J" d="M2.719-5.047q-.001.375-.031.75-.035.361-.063.734h.031q.172-.247.36-.5.198-.263.422-.5l1.828-1.984H7.28L4.688-3.703 7.438 0H5.374l-1.89-2.656-.766.61V0H.938v-9.125h1.78Zm0 0"/><path id="L" d="M6.125-2.375q0 1.143-.828 1.828-.815.674-2.328.672C2.07.125 1.266-.047.547-.391v-1.703c.406.18.828.344 1.265.5.438.149.876.219 1.313.219.445 0 .766-.082.953-.25a.88.88 0 0 0 .281-.672.75.75 0 0 0-.234-.547 2.1 2.1 0 0 0-.594-.422 20 20 0 0 0-.844-.437q-.298-.14-.656-.328-.345-.2-.656-.5a2.6 2.6 0 0 1-.531-.703C.707-5.516.64-5.852.64-6.25c0-.77.257-1.367.78-1.797q.779-.64 2.126-.64c.445 0 .875.054 1.281.156q.609.157 1.266.437l-.578 1.422c-.399-.156-.75-.273-1.063-.36a3.4 3.4 0 0 0-.969-.14q-.515 0-.796.234c-.18.157-.266.368-.266.625q-.002.456.406.72.405.269 1.219.656.654.316 1.11.656.467.328.718.781c.164.305.25.68.25 1.125m0 0"/><path id="M" d="M3.594.125q-1.453 0-2.25-.812T.547-3.234Q.545-4.436.953-5.187q.405-.762 1.125-1.125.733-.36 1.672-.36.668 0 1.172.14.499.129.875.298l-.531 1.39a9 9 0 0 0-.797-.281c-.242-.07-.48-.11-.719-.11-.93 0-1.39.665-1.39 1.985 0 .656.117 1.14.359 1.453q.375.47 1.031.469.561 0 1-.14.434-.153.844-.423v1.516q-.41.27-.86.375a4.5 4.5 0 0 1-1.14.125m0 0"/><path id="N" d="M3.64-6.672q1.344.001 2.141.781.797.77.797 2.188v.875H2.36c.008.5.157.898.438 1.187q.435.423 1.187.422c.426 0 .813-.039 1.157-.125a5 5 0 0 0 1.062-.39v1.39A4.3 4.3 0 0 1 5.187 0a5.8 5.8 0 0 1-1.28.125c-.657 0-1.243-.121-1.75-.36-.5-.25-.9-.617-1.188-1.109q-.422-.75-.422-1.89 0-1.138.375-1.907c.258-.507.625-.89 1.094-1.14.468-.258 1.007-.39 1.625-.39m0 1.266c-.343 0-.632.117-.859.343q-.33.33-.39 1.047h2.5q-.001-.608-.313-1c-.2-.257-.512-.39-.937-.39m0 0"/><path id="O" d="m.422 0 1.516-7.14h.875l-.626 3.015h3.126l.64-3.016h.89L5.329 0h-.875l.703-3.328h-3.14L1.313 0Zm0 0"/><path id="P" d="M2.125-6.25a.49.49 0 0 1-.344-.125c-.086-.082-.125-.195-.125-.344q0-.265.14-.453.155-.187.438-.187.47 0 .47.453 0 .314-.188.484a.54.54 0 0 1-.391.172M.281 0l1.14-5.36h.876L1.157 0Zm0 0"/><path id="Q" d="M1.86 2.406q-.486-.002-.907-.11a3.4 3.4 0 0 1-.703-.233V1.25q.264.152.703.281.452.14.875.14.622 0 1.016-.312.405-.299.562-.984l.094-.39c.031-.145.07-.313.125-.5q.077-.282.125-.47h-.047a3.8 3.8 0 0 1-.765.766q-.44.315-1 .313Q1.293.096.89-.36C.617-.672.484-1.13.484-1.734Q.482-2.45.656-3.125c.125-.445.301-.844.532-1.187q.34-.53.828-.829c.32-.207.687-.312 1.093-.312q.547 0 .875.281c.22.18.38.39.485.64h.047l.328-.827h.672L4.296.313q-.252 1.124-.874 1.609c-.406.32-.93.484-1.563.484m.374-3.031q.329.001.672-.25c.227-.164.438-.39.625-.672.188-.289.336-.613.453-.969q.171-.545.172-1.125 0-.481-.234-.78c-.149-.196-.39-.298-.735-.298-.273 0-.515.09-.734.266a2.3 2.3 0 0 0-.578.687 4 4 0 0 0-.375.97 4.6 4.6 0 0 0-.125 1.093q-.001 1.078.86 1.078m0 0"/><path id="R" d="m.281 0 1.61-7.594h.875l-.422 1.969A10 10 0 0 1 2.188-5q-.096.314-.172.64h.046q.2-.246.454-.5.264-.245.593-.421c.227-.114.485-.172.766-.172q.621.002.984.344.375.346.375 1.03 0 .191-.03.391-.034.206-.079.422L4.422 0h-.875l.703-3.36q.094-.45.094-.656-.001-.327-.172-.515-.157-.188-.531-.188-.346 0-.735.235c-.261.156-.508.414-.734.765q-.328.534-.516 1.406L1.156 0Zm0 0"/><path id="S" d="M2.422.094q-.939 0-1.438-.531c-.336-.364-.5-.86-.5-1.485q-.002-.64.172-1.265.186-.624.532-1.141a2.7 2.7 0 0 1 .859-.813 2.06 2.06 0 0 1 1.11-.312c.507 0 .89.11 1.14.328q.388.329.39.922 0 .518-.328.953-.313.423-1.015.688-.692.25-1.781.25H1.39a1 1 0 0 0-.016.187v.172q0 .61.297.969c.195.242.5.359.906.359q.374.001.719-.11.339-.106.75-.312v.75q-.393.176-.75.281c-.242.07-.531.11-.875.11m-.828-3.125q.59 0 1.094-.094.513-.106.828-.36a.8.8 0 0 0 .312-.656.55.55 0 0 0-.172-.421q-.174-.171-.547-.172-.486 0-.937.453-.44.44-.656 1.25Zm0 0"/><path id="T" d="m.281 0 1.14-5.36h.72l-.11.985h.047q.217-.281.438-.516.234-.246.515-.406c.196-.101.422-.156.672-.156.094 0 .192.008.297.016q.155 0 .297.046l-.203.797a2.4 2.4 0 0 0-.5-.062q-.504 0-.89.328-.394.328-.657.844a4 4 0 0 0-.36 1.03L1.158 0Zm0 0"/><path id="V" d="M1.547.094A3.6 3.6 0 0 1 .687 0a3.2 3.2 0 0 1-.64-.234v-.813Q.31-.89.703-.75c.258.086.531.125.813.125q.59 0 .906-.234c.207-.157.312-.352.312-.594 0-.195-.07-.36-.203-.484q-.188-.2-.703-.5-.564-.311-.86-.657-.28-.34-.28-.844-.001-.684.484-1.093.497-.422 1.328-.422.48.002.89.11c.282.073.524.155.735.25l-.281.702a4 4 0 0 0-.594-.218c-.21-.07-.46-.11-.75-.11q-.44.002-.687.203a.65.65 0 0 0-.25.532c0 .168.054.32.171.453.114.125.348.289.704.484q.34.207.609.406a1.5 1.5 0 0 1 .422.454c.101.167.156.382.156.64q0 .813-.562 1.235-.565.408-1.516.406m0 0"/><path id="W" d="M2.688.094q-.535-.001-.876-.266a1.9 1.9 0 0 1-.5-.64h-.046L.938 0H.28l1.61-7.594h.875L2.39-5.797q-.082.344-.157.672-.081.315-.14.531a1.5 1.5 0 0 1-.078.235h.046q.359-.436.782-.766.422-.328.984-.328.655 0 1.063.469.406.456.406 1.359 0 .721-.188 1.39-.176.675-.515 1.204a2.7 2.7 0 0 1-.813.828q-.485.299-1.094.297m-.063-.719q.389.001.719-.25c.226-.176.422-.406.578-.687.156-.29.273-.614.36-.97q.123-.546.124-1.109-.002-1.078-.86-1.078c-.218 0-.444.086-.671.25q-.346.237-.64.672a4.2 4.2 0 0 0-.47.969c-.117.355-.171.73-.171 1.125q-.001.47.25.781.247.298.781.297m0 0"/><path id="X" d="M1.844.094Q1.31.092.937-.156.563-.42.563-1.062q0-.328.094-.72l.61-2.905H.438l.078-.407.906-.375.625-1.11h.515l-.265 1.22H3.64l-.141.672H2.156l-.61 2.921a3 3 0 0 0-.062.297 1.4 1.4 0 0 0-.03.297c0 .156.038.29.124.39q.124.158.406.157.17.002.344-.031.171-.03.36-.094v.672q-.129.063-.376.11c-.167.038-.324.062-.468.062m0 0"/><clipPath id="a"><path d="M0 0h368.25v151.414H0Zm0 0"/></clipPath><clipPath id="b"><path d="M33.297 98H108v17H33.297Zm0 0"/></clipPath><clipPath id="d"><path d="M33.297 58H315v17H33.297Zm0 0"/></clipPath><clipPath id="f"><path d="M33.297 58H316v18H33.297Zm0 0"/></clipPath><linearGradient id="c" x1="107.41" x2="33.297" y1="114.348" y2="98.512" gradientUnits="userSpaceOnUse" spreadMethod="reflect"><stop offset="0" stop-color="#36F"/><stop offset="1" stop-color="#9CF"/></linearGradient><linearGradient id="e" x1="314.766" x2="33.297" y1="74.762" y2="58.926" gradientUnits="userSpaceOnUse" spreadMethod="reflect"><stop offset="0" stop-color="#36F"/><stop offset="1" stop-color="#9CF"/></linearGradient></defs><g clip-path="url(#a)"><path fill="#FFF" d="M0 0h368.25v151.414H0Zm0 0"/></g><path fill="#FFF" d="M4.043 43.008h360.164V147.37H4.043Zm0 0"/><g clip-path="url(#b)"><path fill="url(#c)" stroke="#000" stroke-linecap="round" stroke-linejoin="round" stroke-miterlimit="10" stroke-width=".5" d="M33.297 114.348h74.113V98.512H33.297Zm0 0"/></g><g clip-path="url(#d)"><path fill="url(#e)" d="M33.297 74.762h281.469V58.926H33.296Zm0 0"/></g><g clip-path="url(#f)"><path fill="none" stroke="#000" stroke-linecap="round" stroke-linejoin="round" stroke-miterlimit="10" stroke-width=".5" d="M33.297 74.762h281.469V58.926H33.296Zm0 0"/></g><use xlink:href="#g" x="113.409" y="108.508"/><use xlink:href="#h" x="116.409" y="108.508"/><use xlink:href="#i" x="119.409" y="108.508"/><use xlink:href="#j" x="122.409" y="108.508"/><use xlink:href="#k" x="124.409" y="108.508"/><use xlink:href="#l" x="127.409" y="108.508"/><use xlink:href="#h" x="320.767" y="68.922"/><use xlink:href="#g" x="323.767" y="68.922"/><use xlink:href="#l" x="326.767" y="68.922"/><use xlink:href="#j" x="329.767" y="68.922"/><use xlink:href="#m" x="331.767" y="68.922"/><use xlink:href="#i" x="334.767" y="68.922"/><path fill="none" stroke="#000" stroke-linecap="round" stroke-linejoin="round" stroke-miterlimit="10" stroke-width=".5" d="M33.297 126.223h319.117m-319.117 4.25v-4.25m45.586 4.25v-4.25m45.59 4.25v-4.25m45.59 4.25v-4.25m45.585 4.25v-4.25m45.59 4.25v-4.25m45.586 4.25v-4.25m45.59 4.25v-4.25"/><use xlink:href="#n" x="30.547" y="140.735"/><use xlink:href="#o" x="71.133" y="140.735"/><use xlink:href="#n" x="76.133" y="140.735"/><use xlink:href="#n" x="81.133" y="140.735"/><use xlink:href="#p" x="116.723" y="140.735"/><use xlink:href="#n" x="121.723" y="140.735"/><use xlink:href="#n" x="126.723" y="140.735"/><use xlink:href="#q" x="162.313" y="140.735"/><use xlink:href="#n" x="167.313" y="140.735"/><use xlink:href="#n" x="172.313" y="140.735"/><use xlink:href="#r" x="207.898" y="140.735"/><use xlink:href="#n" x="212.898" y="140.735"/><use xlink:href="#n" x="217.898" y="140.735"/><use xlink:href="#s" x="253.488" y="140.735"/><use xlink:href="#n" x="258.488" y="140.735"/><use xlink:href="#n" x="263.488" y="140.735"/><use xlink:href="#t" x="299.074" y="140.735"/><use xlink:href="#n" x="304.074" y="140.735"/><use xlink:href="#n" x="309.074" y="140.735"/><use xlink:href="#u" x="344.664" y="140.735"/><use xlink:href="#n" x="349.664" y="140.735"/><use xlink:href="#n" x="354.664" y="140.735"/><path fill="none" stroke="#000" stroke-linecap="round" stroke-linejoin="round" stroke-miterlimit="10" stroke-width=".5" d="M33.297 126.223V47.05m-4.25 79.172h4.25m-4.25-39.586h4.25m-4.25-39.586h4.25"/><use xlink:href="#v" x="7.836" y="109.286"/><use xlink:href="#w" x="12.836" y="109.286"/><use xlink:href="#x" x="16.836" y="109.286"/><use xlink:href="#y" x="18.836" y="109.286"/><use xlink:href="#z" x="21.836" y="109.286"/><use xlink:href="#A" x="12.836" y="69.696"/><use xlink:href="#B" x="16.836" y="69.696"/><use xlink:href="#x" x="20.836" y="69.696"/><use xlink:href="#w" x="22.836" y="69.696"/><use xlink:href="#C" x="130.375" y="16.871"/><use xlink:href="#D" x="141.375" y="16.871"/><use xlink:href="#E" x="148.375" y="16.871"/><use xlink:href="#F" x="153.375" y="16.871"/><use xlink:href="#D" x="157.375" y="16.871"/><use xlink:href="#G" x="164.375" y="16.871"/><use xlink:href="#C" x="172.375" y="16.871"/><use xlink:href="#H" x="183.375" y="16.871"/><use xlink:href="#I" x="190.375" y="16.871"/><use xlink:href="#J" x="195.375" y="16.871"/><use xlink:href="#K" x="202.375" y="16.871"/><use xlink:href="#L" x="205.375" y="16.871"/><use xlink:href="#M" x="212.375" y="16.871"/><use xlink:href="#D" x="218.375" y="16.871"/><use xlink:href="#I" x="225.375" y="16.871"/><use xlink:href="#N" x="230.375" y="16.871"/><use xlink:href="#O" x="148.875" y="35.577"/><use xlink:href="#P" x="155.875" y="35.577"/><use xlink:href="#Q" x="158.875" y="35.577"/><use xlink:href="#R" x="164.875" y="35.577"/><use xlink:href="#S" x="170.875" y="35.577"/><use xlink:href="#T" x="175.875" y="35.577"/><use xlink:href="#U" x="179.875" y="35.577"/><use xlink:href="#P" x="182.875" y="35.577"/><use xlink:href="#V" x="185.875" y="35.577"/><use xlink:href="#U" x="189.875" y="35.577"/><use xlink:href="#W" x="192.875" y="35.577"/><use xlink:href="#S" x="198.875" y="35.577"/><use xlink:href="#X" x="203.875" y="35.577"/><use xlink:href="#X" x="206.875" y="35.577"/><use xlink:href="#S" x="209.875" y="35.577"/><use xlink:href="#T" x="214.875" y="35.577"/></svg>